<svg id="visual" viewBox="0 0 1200 630" width="1200" height="630" xmlns="http://www.w3.org/2000/svg" xmlns:xlink="http://www.w3.org/1999/xlink" version="1.1"><g stroke-width="1" stroke-linejoin="bevel"><path d="M580.3 398.5L583 434.5L639.7 411.5Z" fill="#8dc9ed" stroke="#8dc9ed"></path><path d="M580.3 398.5L557 457.8L583 434.5Z" fill="#8dc9ed" stroke="#8dc9ed"></path><path d="M583 434.5L687.4 475.5L639.7 411.5Z" fill="#81c4ee" stroke="#81c4ee"></path><path d="M589.3 557.3L687.4 475.5L583 434.5Z" fill="#8dc9ed" stroke="#8dc9ed"></path><path d="M580.3 398.5L501.3 436.8L557 457.8Z" fill="#aad3ec" stroke="#aad3ec"></path><path d="M687.4 475.5L732.7 343.8L639.7 411.5Z" fill="#93cbed" stroke="#93cbed"></path><path d="M639.7 411.5L732.7 343.8L580.3 398.5Z" fill="#b5d7ec" stroke="#b5d7ec"></path><path d="M523 556.3L589.3 557.3L557 457.8Z" fill="#b0d5ec" stroke="#b0d5ec"></path><path d="M557 457.8L589.3 557.3L583 434.5Z" fill="#b5d7ec" stroke="#b5d7ec"></path><path d="M501.3 436.8L462.6 471.5L557 457.8Z" fill="#b0d5ec" stroke="#b0d5ec"></path><path d="M513 236L478.6 327L580.3 398.5Z" fill="#87c6ee" stroke="#87c6ee"></path><path d="M580.3 398.5L478.6 327L501.3 436.8Z" fill="#b0d5ec" stroke="#b0d5ec"></path><path d="M501.3 436.8L411.6 453.8L462.6 471.5Z" fill="#b5d7ec" stroke="#b5d7ec"></path><path d="M462.6 471.5L523 556.3L557 457.8Z" fill="#b5d7ec" stroke="#b5d7ec"></path><path d="M791.4 388.8L768.7 347L732.7 343.8Z" fill="#b5d7ec" stroke="#b5d7ec"></path><path d="M782.1 515.5L772.7 489.3L687.4 475.5Z" fill="#7bc2ee" stroke="#7bc2ee"></path><path d="M687.4 475.5L791.4 388.8L732.7 343.8Z" fill="#99cded" stroke="#99cded"></path><path d="M772.7 489.3L791.4 388.8L687.4 475.5Z" fill="#a4d1ed" stroke="#a4d1ed"></path><path d="M772.7 489.3L794.1 473.8L791.4 388.8Z" fill="#8dc9ed" stroke="#8dc9ed"></path><path d="M478.6 327L411.6 453.8L501.3 436.8Z" fill="#b5d7ec" stroke="#b5d7ec"></path><path d="M405.9 600.3L516.6 630L523 556.3Z" fill="#9fcfed" stroke="#9fcfed"></path><path d="M677.7 630L782.1 515.5L687.4 475.5Z" fill="#b5d7ec" stroke="#b5d7ec"></path><path d="M772.7 489.3L782.1 515.5L794.1 473.8Z" fill="#99cded" stroke="#99cded"></path><path d="M719.4 231.5L513 236L580.3 398.5Z" fill="#b0d5ec" stroke="#b0d5ec"></path><path d="M478.6 327L391.6 316.3L411.6 453.8Z" fill="#8dc9ed" stroke="#8dc9ed"></path><path d="M719.4 231.5L580.3 398.5L732.7 343.8Z" fill="#a4d1ed" stroke="#a4d1ed"></path><path d="M513 236L509.3 237.3L478.6 327Z" fill="#b0d5ec" stroke="#b0d5ec"></path><path d="M791.4 388.8L797.4 315L768.7 347Z" fill="#7bc2ee" stroke="#7bc2ee"></path><path d="M768.7 347L797.4 315L732.7 343.8Z" fill="#9fcfed" stroke="#9fcfed"></path><path d="M875.1 381L797.4 315L791.4 388.8Z" fill="#b5d7ec" stroke="#b5d7ec"></path><path d="M797.4 315L719.4 231.5L732.7 343.8Z" fill="#8dc9ed" stroke="#8dc9ed"></path><path d="M551.3 630L608 630L589.3 557.3Z" fill="#7bc2ee" stroke="#7bc2ee"></path><path d="M589.3 557.3L677.7 630L687.4 475.5Z" fill="#aad3ec" stroke="#aad3ec"></path><path d="M681.7 162.5L517 211.5L513 236Z" fill="#81c4ee" stroke="#81c4ee"></path><path d="M513 236L517 211.5L509.3 237.3Z" fill="#7bc2ee" stroke="#7bc2ee"></path><path d="M429.3 254L391.6 316.3L478.6 327Z" fill="#7bc2ee" stroke="#7bc2ee"></path><path d="M516.6 630L551.3 630L523 556.3Z" fill="#aad3ec" stroke="#aad3ec"></path><path d="M523 556.3L551.3 630L589.3 557.3Z" fill="#87c6ee" stroke="#87c6ee"></path><path d="M608 630L677.7 630L589.3 557.3Z" fill="#81c4ee" stroke="#81c4ee"></path><path d="M405.9 600.3L523 556.3L462.6 471.5Z" fill="#87c6ee" stroke="#87c6ee"></path><path d="M429.3 254L478.6 327L509.3 237.3Z" fill="#8dc9ed" stroke="#8dc9ed"></path><path d="M426.6 243.5L429.3 254L509.3 237.3Z" fill="#8dc9ed" stroke="#8dc9ed"></path><path d="M782.1 515.5L835.1 500.3L794.1 473.8Z" fill="#9fcfed" stroke="#9fcfed"></path><path d="M794.1 473.8L866.9 406L791.4 388.8Z" fill="#99cded" stroke="#99cded"></path><path d="M869.9 530.3L835.1 500.3L848.4 586.3Z" fill="#9fcfed" stroke="#9fcfed"></path><path d="M517 211.5L426.6 243.5L509.3 237.3Z" fill="#b5d7ec" stroke="#b5d7ec"></path><path d="M429.3 254L380.9 261.3L391.6 316.3Z" fill="#99cded" stroke="#99cded"></path><path d="M803.1 229.5L732.7 192.3L719.4 231.5Z" fill="#99cded" stroke="#99cded"></path><path d="M719.4 231.5L681.7 162.5L513 236Z" fill="#99cded" stroke="#99cded"></path><path d="M862.9 464.8L866.9 406L794.1 473.8Z" fill="#b0d5ec" stroke="#b0d5ec"></path><path d="M797.4 315L803.1 229.5L719.4 231.5Z" fill="#b0d5ec" stroke="#b0d5ec"></path><path d="M835.1 500.3L862.9 464.8L794.1 473.8Z" fill="#81c4ee" stroke="#81c4ee"></path><path d="M732.7 192.3L689.4 166.8L719.4 231.5Z" fill="#93cbed" stroke="#93cbed"></path><path d="M689.4 166.8L681.7 162.5L719.4 231.5Z" fill="#aad3ec" stroke="#aad3ec"></path><path d="M837.1 213.3L803.1 229.5L797.4 315Z" fill="#b5d7ec" stroke="#b5d7ec"></path><path d="M792.1 81.8L681.7 162.5L689.4 166.8Z" fill="#b0d5ec" stroke="#b0d5ec"></path><path d="M997.6 478.8L875.1 381L866.9 406Z" fill="#b5d7ec" stroke="#b5d7ec"></path><path d="M866.9 406L875.1 381L791.4 388.8Z" fill="#b5d7ec" stroke="#b5d7ec"></path><path d="M805.4 146.3L689.4 166.8L732.7 192.3Z" fill="#99cded" stroke="#99cded"></path><path d="M792.1 81.8L665 149.3L681.7 162.5Z" fill="#a4d1ed" stroke="#a4d1ed"></path><path d="M681.7 162.5L665 149.3L517 211.5Z" fill="#aad3ec" stroke="#aad3ec"></path><path d="M517 211.5L391.9 149.5L426.6 243.5Z" fill="#8dc9ed" stroke="#8dc9ed"></path><path d="M677.7 630L776.4 630L782.1 515.5Z" fill="#9fcfed" stroke="#9fcfed"></path><path d="M835.1 500.3L869.9 530.3L862.9 464.8Z" fill="#93cbed" stroke="#93cbed"></path><path d="M391.9 149.5L380.9 261.3L426.6 243.5Z" fill="#b0d5ec" stroke="#b0d5ec"></path><path d="M426.6 243.5L380.9 261.3L429.3 254Z" fill="#8dc9ed" stroke="#8dc9ed"></path><path d="M344.6 605.3L405.9 600.3L411.6 453.8Z" fill="#b0d5ec" stroke="#b0d5ec"></path><path d="M306.9 429.5L411.6 453.8L391.6 316.3Z" fill="#93cbed" stroke="#93cbed"></path><path d="M411.6 453.8L405.9 600.3L462.6 471.5Z" fill="#93cbed" stroke="#93cbed"></path><path d="M848.4 586.3L835.1 500.3L782.1 515.5Z" fill="#93cbed" stroke="#93cbed"></path><path d="M862.9 464.8L997.6 478.8L866.9 406Z" fill="#a4d1ed" stroke="#a4d1ed"></path><path d="M776.4 630L848.4 586.3L782.1 515.5Z" fill="#8dc9ed" stroke="#8dc9ed"></path><path d="M314.1 307.8L306.9 429.5L391.6 316.3Z" fill="#9fcfed" stroke="#9fcfed"></path><path d="M935.9 217.3L837.1 213.3L797.4 315Z" fill="#9fcfed" stroke="#9fcfed"></path><path d="M803.1 229.5L805.4 146.3L732.7 192.3Z" fill="#aad3ec" stroke="#aad3ec"></path><path d="M665 149.3L506.3 126.5L517 211.5Z" fill="#8dc9ed" stroke="#8dc9ed"></path><path d="M305.1 204.5L318.1 298L380.9 261.3Z" fill="#81c4ee" stroke="#81c4ee"></path><path d="M380.9 261.3L318.1 298L391.6 316.3Z" fill="#a4d1ed" stroke="#a4d1ed"></path><path d="M318.1 298L314.1 307.8L391.6 316.3Z" fill="#87c6ee" stroke="#87c6ee"></path><path d="M907.1 630L890.9 564.5L848.4 586.3Z" fill="#81c4ee" stroke="#81c4ee"></path><path d="M848.4 586.3L890.9 564.5L869.9 530.3Z" fill="#b0d5ec" stroke="#b0d5ec"></path><path d="M869.9 530.3L997.6 478.8L862.9 464.8Z" fill="#87c6ee" stroke="#87c6ee"></path><path d="M306.9 429.5L344.6 605.3L411.6 453.8Z" fill="#7bc2ee" stroke="#7bc2ee"></path><path d="M405.9 600.3L344.6 605.3L516.6 630Z" fill="#a4d1ed" stroke="#a4d1ed"></path><path d="M837.1 213.3L805.4 146.3L803.1 229.5Z" fill="#7bc2ee" stroke="#7bc2ee"></path><path d="M665 149.3L613 46.8L506.3 126.5Z" fill="#87c6ee" stroke="#87c6ee"></path><path d="M506.3 126.5L391.9 149.5L517 211.5Z" fill="#b5d7ec" stroke="#b5d7ec"></path><path d="M264.9 346L314.1 307.8L213.1 320.3Z" fill="#81c4ee" stroke="#81c4ee"></path><path d="M264.9 346L261.9 372.8L314.1 307.8Z" fill="#8dc9ed" stroke="#8dc9ed"></path><path d="M314.1 307.8L261.9 372.8L306.9 429.5Z" fill="#8dc9ed" stroke="#8dc9ed"></path><path d="M225.4 546.5L266.9 630L344.6 605.3Z" fill="#93cbed" stroke="#93cbed"></path><path d="M213.1 320.3L314.1 307.8L318.1 298Z" fill="#7bc2ee" stroke="#7bc2ee"></path><path d="M646 0L613 46.8L695.4 0Z" fill="#87c6ee" stroke="#87c6ee"></path><path d="M506.3 126.5L401.9 90.8L391.9 149.5Z" fill="#8dc9ed" stroke="#8dc9ed"></path><path d="M391.9 149.5L305.1 204.5L380.9 261.3Z" fill="#9fcfed" stroke="#9fcfed"></path><path d="M776.4 630L907.1 630L848.4 586.3Z" fill="#99cded" stroke="#99cded"></path><path d="M1037.3 314.3L935.9 217.3L875.1 381Z" fill="#99cded" stroke="#99cded"></path><path d="M896.9 85.8L792.1 81.8L805.4 146.3Z" fill="#8dc9ed" stroke="#8dc9ed"></path><path d="M805.4 146.3L792.1 81.8L689.4 166.8Z" fill="#a4d1ed" stroke="#a4d1ed"></path><path d="M875.1 381L935.9 217.3L797.4 315Z" fill="#87c6ee" stroke="#87c6ee"></path><path d="M837.1 213.3L896.9 85.8L805.4 146.3Z" fill="#93cbed" stroke="#93cbed"></path><path d="M997.6 478.8L869.9 530.3L890.9 564.5Z" fill="#8dc9ed" stroke="#8dc9ed"></path><path d="M464.6 6.8L401.9 90.8L506.3 126.5Z" fill="#87c6ee" stroke="#87c6ee"></path><path d="M391.9 149.5L273.1 47.8L305.1 204.5Z" fill="#93cbed" stroke="#93cbed"></path><path d="M646 0L553.3 31.8L613 46.8Z" fill="#87c6ee" stroke="#87c6ee"></path><path d="M613 46.8L553.3 31.8L506.3 126.5Z" fill="#a4d1ed" stroke="#a4d1ed"></path><path d="M1036.3 538.5L997.6 478.8L890.9 564.5Z" fill="#7bc2ee" stroke="#7bc2ee"></path><path d="M225.4 546.5L344.6 605.3L306.9 429.5Z" fill="#8dc9ed" stroke="#8dc9ed"></path><path d="M344.6 605.3L266.9 630L516.6 630Z" fill="#9fcfed" stroke="#9fcfed"></path><path d="M167.1 507.5L306.9 429.5L261.9 372.8Z" fill="#b5d7ec" stroke="#b5d7ec"></path><path d="M167.1 507.5L225.4 546.5L306.9 429.5Z" fill="#b0d5ec" stroke="#b0d5ec"></path><path d="M305.1 204.5L213.1 320.3L318.1 298Z" fill="#aad3ec" stroke="#aad3ec"></path><path d="M264.9 346L213.1 320.3L261.9 372.8Z" fill="#b0d5ec" stroke="#b0d5ec"></path><path d="M216.1 570.3L253.1 630L266.9 630Z" fill="#81c4ee" stroke="#81c4ee"></path><path d="M695.4 0L613 46.8L665 149.3Z" fill="#aad3ec" stroke="#aad3ec"></path><path d="M149.7 555.3L216.1 570.3L225.4 546.5Z" fill="#9fcfed" stroke="#9fcfed"></path><path d="M225.4 546.5L216.1 570.3L266.9 630Z" fill="#87c6ee" stroke="#87c6ee"></path><path d="M705.7 0L695.4 0L665 149.3Z" fill="#8dc9ed" stroke="#8dc9ed"></path><path d="M792.1 81.8L705.7 0L665 149.3Z" fill="#7bc2ee" stroke="#7bc2ee"></path><path d="M867.9 0L705.7 0L792.1 81.8Z" fill="#93cbed" stroke="#93cbed"></path><path d="M646 0L488.6 0L553.3 31.8Z" fill="#87c6ee" stroke="#87c6ee"></path><path d="M553.3 31.8L488.6 0L506.3 126.5Z" fill="#93cbed" stroke="#93cbed"></path><path d="M695.4 0L679.7 -11.2L646 0Z" fill="#9fcfed" stroke="#9fcfed"></path><path d="M646 0L679.7 -11.2L488.6 0Z" fill="#9fcfed" stroke="#9fcfed"></path><path d="M705.7 0L679.7 -11.2L695.4 0Z" fill="#a4d1ed" stroke="#a4d1ed"></path><path d="M488.6 0L464.6 6.8L506.3 126.5Z" fill="#87c6ee" stroke="#87c6ee"></path><path d="M401.9 90.8L273.1 47.8L391.9 149.5Z" fill="#aad3ec" stroke="#aad3ec"></path><path d="M679.7 -11.2L473.3 0L488.6 0Z" fill="#b5d7ec" stroke="#b5d7ec"></path><path d="M488.6 0L473.3 0L464.6 6.8Z" fill="#87c6ee" stroke="#87c6ee"></path><path d="M935.9 217.3L896.9 85.8L837.1 213.3Z" fill="#7bc2ee" stroke="#7bc2ee"></path><path d="M997.6 478.8L1037.3 314.3L875.1 381Z" fill="#b5d7ec" stroke="#b5d7ec"></path><path d="M935.9 217.3L963.9 137.5L896.9 85.8Z" fill="#7bc2ee" stroke="#7bc2ee"></path><path d="M907.1 630L1036.3 538.5L890.9 564.5Z" fill="#81c4ee" stroke="#81c4ee"></path><path d="M997.6 478.8L1093.6 414.5L1037.3 314.3Z" fill="#93cbed" stroke="#93cbed"></path><path d="M130.7 404.5L167.1 507.5L261.9 372.8Z" fill="#99cded" stroke="#99cded"></path><path d="M216.1 570.3L175.7 630L253.1 630Z" fill="#8dc9ed" stroke="#8dc9ed"></path><path d="M1005.6 126.5L963.9 137.5L935.9 217.3Z" fill="#93cbed" stroke="#93cbed"></path><path d="M907.1 630L1030.9 630L1036.3 538.5Z" fill="#81c4ee" stroke="#81c4ee"></path><path d="M120.7 315L130.7 404.5L213.1 320.3Z" fill="#b5d7ec" stroke="#b5d7ec"></path><path d="M213.1 320.3L130.7 404.5L261.9 372.8Z" fill="#9fcfed" stroke="#9fcfed"></path><path d="M120.7 315L213.1 320.3L116.4 304.8Z" fill="#81c4ee" stroke="#81c4ee"></path><path d="M121.4 536.3L149.7 555.3L167.1 507.5Z" fill="#b0d5ec" stroke="#b0d5ec"></path><path d="M167.1 507.5L149.7 555.3L225.4 546.5Z" fill="#87c6ee" stroke="#87c6ee"></path><path d="M149.7 555.3L175.7 630L216.1 570.3Z" fill="#81c4ee" stroke="#81c4ee"></path><path d="M473.3 0L357.9 0L464.6 6.8Z" fill="#a4d1ed" stroke="#a4d1ed"></path><path d="M464.6 6.8L357.9 0L401.9 90.8Z" fill="#87c6ee" stroke="#87c6ee"></path><path d="M679.7 -11.2L357.9 0L473.3 0Z" fill="#93cbed" stroke="#93cbed"></path><path d="M1036.3 538.5L1093.6 414.5L997.6 478.8Z" fill="#7bc2ee" stroke="#7bc2ee"></path><path d="M1119.6 249.3L1005.6 126.5L935.9 217.3Z" fill="#81c4ee" stroke="#81c4ee"></path><path d="M1200 484.8L1093.6 414.5L1036.3 538.5Z" fill="#8dc9ed" stroke="#8dc9ed"></path><path d="M936.6 0L867.9 0L896.9 85.8Z" fill="#93cbed" stroke="#93cbed"></path><path d="M896.9 85.8L867.9 0L792.1 81.8Z" fill="#8dc9ed" stroke="#8dc9ed"></path><path d="M705.7 0L867.9 0L679.7 -11.2Z" fill="#b0d5ec" stroke="#b0d5ec"></path><path d="M1119.6 249.3L935.9 217.3L1037.3 314.3Z" fill="#7bc2ee" stroke="#7bc2ee"></path><path d="M942.1 0L936.6 0L896.9 85.8Z" fill="#b5d7ec" stroke="#b5d7ec"></path><path d="M1030.9 630L1053.6 630L1036.3 538.5Z" fill="#87c6ee" stroke="#87c6ee"></path><path d="M325.1 0L273.1 47.8L401.9 90.8Z" fill="#aad3ec" stroke="#aad3ec"></path><path d="M163.7 183.3L213.1 320.3L305.1 204.5Z" fill="#7bc2ee" stroke="#7bc2ee"></path><path d="M165.4 155.3L163.7 183.3L305.1 204.5Z" fill="#87c6ee" stroke="#87c6ee"></path><path d="M73.7 485.8L121.4 536.3L167.1 507.5Z" fill="#9fcfed" stroke="#9fcfed"></path><path d="M149.7 555.3L126.4 630L175.7 630Z" fill="#a4d1ed" stroke="#a4d1ed"></path><path d="M73.7 485.8L167.1 507.5L130.7 404.5Z" fill="#81c4ee" stroke="#81c4ee"></path><path d="M357.9 0L325.1 0L401.9 90.8Z" fill="#99cded" stroke="#99cded"></path><path d="M679.7 -11.2L325.1 0L357.9 0Z" fill="#8dc9ed" stroke="#8dc9ed"></path><path d="M1093.6 414.5L1101.6 322L1037.3 314.3Z" fill="#87c6ee" stroke="#87c6ee"></path><path d="M163.7 183.3L116.4 304.8L213.1 320.3Z" fill="#87c6ee" stroke="#87c6ee"></path><path d="M0 378.8L73.7 485.8L130.7 404.5Z" fill="#8dc9ed" stroke="#8dc9ed"></path><path d="M185.4 117.5L165.4 155.3L305.1 204.5Z" fill="#81c4ee" stroke="#81c4ee"></path><path d="M163.7 183.3L78.4 269L116.4 304.8Z" fill="#99cded" stroke="#99cded"></path><path d="M1053.6 630L1082.6 613.3L1036.3 538.5Z" fill="#93cbed" stroke="#93cbed"></path><path d="M1167.3 307L1119.6 249.3L1101.6 322Z" fill="#87c6ee" stroke="#87c6ee"></path><path d="M198.4 0L185.4 117.5L273.1 47.8Z" fill="#b0d5ec" stroke="#b0d5ec"></path><path d="M273.1 47.8L185.4 117.5L305.1 204.5Z" fill="#7bc2ee" stroke="#7bc2ee"></path><path d="M121.4 536.3L126.4 630L149.7 555.3Z" fill="#a4d1ed" stroke="#a4d1ed"></path><path d="M942.1 0L896.9 85.8L963.9 137.5Z" fill="#87c6ee" stroke="#87c6ee"></path><path d="M867.9 0L936.6 0L679.7 -11.2Z" fill="#81c4ee" stroke="#81c4ee"></path><path d="M1005.6 126.5L942.1 0L963.9 137.5Z" fill="#aad3ec" stroke="#aad3ec"></path><path d="M936.6 0L942.1 0L679.7 -11.2Z" fill="#93cbed" stroke="#93cbed"></path><path d="M1167.3 307L1101.6 322L1200 356Z" fill="#a4d1ed" stroke="#a4d1ed"></path><path d="M1101.6 322L1119.6 249.3L1037.3 314.3Z" fill="#a4d1ed" stroke="#a4d1ed"></path><path d="M1005.6 126.5L1055.3 0L942.1 0Z" fill="#b0d5ec" stroke="#b0d5ec"></path><path d="M0 378.8L130.7 404.5L120.7 315Z" fill="#9fcfed" stroke="#9fcfed"></path><path d="M121.4 536.3L0 549.5L126.4 630Z" fill="#7bc2ee" stroke="#7bc2ee"></path><path d="M1053.6 630L1105.3 630L1082.6 613.3Z" fill="#81c4ee" stroke="#81c4ee"></path><path d="M1200 524.3L1200 484.8L1036.3 538.5Z" fill="#b0d5ec" stroke="#b0d5ec"></path><path d="M82.7 147.5L78.4 269L163.7 183.3Z" fill="#7bc2ee" stroke="#7bc2ee"></path><path d="M0 308L0 378.8L120.7 315Z" fill="#9fcfed" stroke="#9fcfed"></path><path d="M82.7 147.5L163.7 183.3L165.4 155.3Z" fill="#81c4ee" stroke="#81c4ee"></path><path d="M1139.3 147.8L1071.3 92.5L1005.6 126.5Z" fill="#b0d5ec" stroke="#b0d5ec"></path><path d="M1200 356L1101.6 322L1093.6 414.5Z" fill="#93cbed" stroke="#93cbed"></path><path d="M1119.6 249.3L1139.3 147.8L1005.6 126.5Z" fill="#a4d1ed" stroke="#a4d1ed"></path><path d="M325.1 0L198.4 0L273.1 47.8Z" fill="#aad3ec" stroke="#aad3ec"></path><path d="M112.4 80.8L82.7 147.5L165.4 155.3Z" fill="#aad3ec" stroke="#aad3ec"></path><path d="M679.7 -11.2L198.4 0L325.1 0Z" fill="#8dc9ed" stroke="#8dc9ed"></path><path d="M112.4 80.8L165.4 155.3L185.4 117.5Z" fill="#b0d5ec" stroke="#b0d5ec"></path><path d="M1200 484.8L1200 391.5L1093.6 414.5Z" fill="#a4d1ed" stroke="#a4d1ed"></path><path d="M1200 242.5L1139.3 147.8L1119.6 249.3Z" fill="#99cded" stroke="#99cded"></path><path d="M1200 242.5L1119.6 249.3L1167.3 307Z" fill="#b0d5ec" stroke="#b0d5ec"></path><path d="M1200 391.5L1200 356L1093.6 414.5Z" fill="#8dc9ed" stroke="#8dc9ed"></path><path d="M1198.3 532.3L1036.3 538.5L1082.6 613.3Z" fill="#9fcfed" stroke="#9fcfed"></path><path d="M198.4 0L112.4 80.8L185.4 117.5Z" fill="#93cbed" stroke="#93cbed"></path><path d="M1200 484.8L1202.3 344.8L1200 391.5Z" fill="#7bc2ee" stroke="#7bc2ee"></path><path d="M1200 391.5L1202.3 344.8L1200 356Z" fill="#aad3ec" stroke="#aad3ec"></path><path d="M1200 356L1202.3 344.8L1167.3 307Z" fill="#a4d1ed" stroke="#a4d1ed"></path><path d="M1105.3 630L1198.3 532.3L1082.6 613.3Z" fill="#a4d1ed" stroke="#a4d1ed"></path><path d="M1198.3 532.3L1200 524.3L1036.3 538.5Z" fill="#93cbed" stroke="#93cbed"></path><path d="M1200 484.8L1200 524.3L1202.3 344.8Z" fill="#99cded" stroke="#99cded"></path><path d="M1202.3 344.8L1200 303.3L1167.3 307Z" fill="#81c4ee" stroke="#81c4ee"></path><path d="M1200 140.8L1113.6 77.8L1139.3 147.8Z" fill="#9fcfed" stroke="#9fcfed"></path><path d="M1139.3 147.8L1113.6 77.8L1071.3 92.5Z" fill="#9fcfed" stroke="#9fcfed"></path><path d="M1071.3 92.5L1055.3 0L1005.6 126.5Z" fill="#81c4ee" stroke="#81c4ee"></path><path d="M0 308L116.4 304.8L78.4 269Z" fill="#8dc9ed" stroke="#8dc9ed"></path><path d="M0 308L120.7 315L116.4 304.8Z" fill="#99cded" stroke="#99cded"></path><path d="M73.7 485.8L0 549.5L121.4 536.3Z" fill="#aad3ec" stroke="#aad3ec"></path><path d="M1113.6 77.8L1055.3 0L1071.3 92.5Z" fill="#87c6ee" stroke="#87c6ee"></path><path d="M942.1 0L1055.3 0L679.7 -11.2Z" fill="#7bc2ee" stroke="#7bc2ee"></path><path d="M0 378.8L0 472.3L73.7 485.8Z" fill="#b0d5ec" stroke="#b0d5ec"></path><path d="M1202.3 344.8L1200 242.5L1200 303.3Z" fill="#99cded" stroke="#99cded"></path><path d="M1200 303.3L1200 242.5L1167.3 307Z" fill="#8dc9ed" stroke="#8dc9ed"></path><path d="M0 183.3L0 308L78.4 269Z" fill="#99cded" stroke="#99cded"></path><path d="M0 183.3L78.4 269L82.7 147.5Z" fill="#7bc2ee" stroke="#7bc2ee"></path><path d="M0 472.3L0 549.5L73.7 485.8Z" fill="#93cbed" stroke="#93cbed"></path><path d="M1105.3 630L1200 630L1198.3 532.3Z" fill="#a4d1ed" stroke="#a4d1ed"></path><path d="M1198.3 532.3L1200 630L1200 524.3Z" fill="#aad3ec" stroke="#aad3ec"></path><path d="M1200 524.3L1200 630L1202.3 344.8Z" fill="#a4d1ed" stroke="#a4d1ed"></path><path d="M0 549.5L0 630L126.4 630Z" fill="#93cbed" stroke="#93cbed"></path><path d="M0 85.5L0 183.3L82.7 147.5Z" fill="#87c6ee" stroke="#87c6ee"></path><path d="M0 85.5L82.7 147.5L112.4 80.8Z" fill="#a4d1ed" stroke="#a4d1ed"></path><path d="M1202.3 344.8L1200 140.8L1200 242.5Z" fill="#8dc9ed" stroke="#8dc9ed"></path><path d="M1200 242.5L1200 140.8L1139.3 147.8Z" fill="#b5d7ec" stroke="#b5d7ec"></path><path d="M1113.6 77.8L1200 0L1055.3 0Z" fill="#87c6ee" stroke="#87c6ee"></path><path d="M0 62.8L0 85.5L112.4 80.8Z" fill="#a4d1ed" stroke="#a4d1ed"></path><path d="M36.7 -0.2L53.7 0L198.4 0Z" fill="#93cbed" stroke="#93cbed"></path><path d="M198.4 0L53.7 0L112.4 80.8Z" fill="#9fcfed" stroke="#9fcfed"></path><path d="M53.7 0L0 62.8L112.4 80.8Z" fill="#b5d7ec" stroke="#b5d7ec"></path><path d="M679.7 -11.2L36.7 -0.2L198.4 0Z" fill="#aad3ec" stroke="#aad3ec"></path><path d="M53.7 0L36.7 -0.2L0 62.8Z" fill="#b0d5ec" stroke="#b0d5ec"></path><path d="M1202.3 344.8L1200 0L1200 140.8Z" fill="#b5d7ec" stroke="#b5d7ec"></path><path d="M1200 140.8L1200 0L1113.6 77.8Z" fill="#aad3ec" stroke="#aad3ec"></path><path d="M1055.3 0L1200 0L679.7 -11.2Z" fill="#a4d1ed" stroke="#a4d1ed"></path><path d="M679.7 -11.2L0 0L36.7 -0.2Z" fill="#9fcfed" stroke="#9fcfed"></path><path d="M36.7 -0.2L0 0L0 62.8Z" fill="#8dc9ed" stroke="#8dc9ed"></path></g></svg>