<svg id="visual" viewBox="0 0 1200 630" width="1200" height="630" xmlns="http://www.w3.org/2000/svg" xmlns:xlink="http://www.w3.org/1999/xlink" version="1.1"><path d="M0 140L300 228L600 247L900 177L1200 190L1200 0L900 0L600 0L300 0L0 0Z" fill="#ebfffc"></path><path d="M0 278L300 303L600 360L900 322L1200 322L1200 188L900 175L600 245L300 226L0 138Z" fill="#c2f4ec"></path><path d="M0 518L300 524L600 492L900 467L1200 492L1200 320L900 320L600 358L300 301L0 276Z" fill="#96e9da"></path><path d="M0 562L300 574L600 549L900 537L1200 574L1200 490L900 465L600 490L300 522L0 516Z" fill="#64ddc7"></path><path d="M0 631L300 631L600 631L900 631L1200 631L1200 572L900 535L600 547L300 572L0 560Z" fill="#00d1b2"></path></svg>