<svg id="visual" viewBox="0 0 1200 630" width="1200" height="630" xmlns="http://www.w3.org/2000/svg" xmlns:xlink="http://www.w3.org/1999/xlink" version="1.1"><path d="M0 140L50 147.3C100 154.7 200 169.3 300 179.8C400 190.3 500 196.7 600 205C700 213.3 800 223.7 900 208.8C1000 194 1100 154 1150 134L1200 114L1200 0L1150 0C1100 0 1000 0 900 0C800 0 700 0 600 0C500 0 400 0 300 0C200 0 100 0 50 0L0 0Z" fill="#f5e9a4"></path><path d="M0 196L50 215C100 234 200 272 300 284.7C400 297.3 500 284.7 600 283.5C700 282.3 800 292.7 900 279C1000 265.3 1100 227.7 1150 208.8L1200 190L1200 112L1150 132C1100 152 1000 192 900 206.8C800 221.7 700 211.3 600 203C500 194.7 400 188.3 300 177.8C200 167.3 100 152.7 50 145.3L0 138Z" fill="#f3e48f"></path><path d="M0 341L50 363.2C100 385.3 200 429.7 300 431.8C400 434 500 394 600 382.3C700 370.7 800 387.3 900 372.7C1000 358 1100 312 1150 289L1200 266L1200 188L1150 206.8C1100 225.7 1000 263.3 900 277C800 290.7 700 280.3 600 281.5C500 282.7 400 295.3 300 282.7C200 270 100 232 50 213L0 194Z" fill="#f1df79"></path><path d="M0 436L50 449.7C100 463.3 200 490.7 300 492.7C400 494.7 500 471.3 600 464C700 456.7 800 465.3 900 449.7C1000 434 1100 394 1150 374L1200 354L1200 264L1150 287C1100 310 1000 356 900 370.7C800 385.3 700 368.7 600 380.3C500 392 400 432 300 429.8C200 427.7 100 383.3 50 361.2L0 339Z" fill="#e4d169"></path><path d="M0 631L50 631C100 631 200 631 300 631C400 631 500 631 600 631C700 631 800 631 900 631C1000 631 1100 631 1150 631L1200 631L1200 352L1150 372C1100 392 1000 432 900 447.7C800 463.3 700 454.7 600 462C500 469.3 400 492.7 300 490.7C200 488.7 100 461.3 50 447.7L0 434Z" fill="#d7c359"></path></svg>