<svg id="visual" viewBox="0 0 1200 630" width="1200" height="630" xmlns="http://www.w3.org/2000/svg" xmlns:xlink="http://www.w3.org/1999/xlink" version="1.1"><rect x="0" y="0" width="1200" height="630" fill="#ffedec"></rect><path d="M0 424L33.3 427.5C66.7 431 133.3 438 200 435.3C266.7 432.7 333.3 420.3 400 410.2C466.7 400 533.3 392 600 384.7C666.7 377.3 733.3 370.7 800 379C866.7 387.3 933.3 410.7 1000 436.2C1066.7 461.7 1133.3 489.3 1166.7 503.2L1200 517L1200 631L1166.7 631C1133.3 631 1066.7 631 1000 631C933.3 631 866.7 631 800 631C733.3 631 666.7 631 600 631C533.3 631 466.7 631 400 631C333.3 631 266.7 631 200 631C133.3 631 66.7 631 33.3 631L0 631Z" fill="#eccdcb"></path><path d="M0 552L33.3 538C66.7 524 133.3 496 200 494C266.7 492 333.3 516 400 521.7C466.7 527.3 533.3 514.7 600 503.3C666.7 492 733.3 482 800 463.8C866.7 445.7 933.3 419.3 1000 430.2C1066.7 441 1133.3 489 1166.7 513L1200 537L1200 631L1166.7 631C1133.3 631 1066.7 631 1000 631C933.3 631 866.7 631 800 631C733.3 631 666.7 631 600 631C533.3 631 466.7 631 400 631C333.3 631 266.7 631 200 631C133.3 631 66.7 631 33.3 631L0 631Z" fill="#f1bdb9"></path><path d="M0 412L33.3 429.2C66.7 446.3 133.3 480.7 200 502.5C266.7 524.3 333.3 533.7 400 517C466.7 500.3 533.3 457.7 600 434.7C666.7 411.7 733.3 408.3 800 406.3C866.7 404.3 933.3 403.7 1000 415.7C1066.7 427.7 1133.3 452.3 1166.7 464.7L1200 477L1200 631L1166.7 631C1133.3 631 1066.7 631 1000 631C933.3 631 866.7 631 800 631C733.3 631 666.7 631 600 631C533.3 631 466.7 631 400 631C333.3 631 266.7 631 200 631C133.3 631 66.7 631 33.3 631L0 631Z" fill="#f5aca6"></path><path d="M0 495L33.3 496.2C66.7 497.3 133.3 499.7 200 496.5C266.7 493.3 333.3 484.7 400 484.2C466.7 483.7 533.3 491.3 600 491.3C666.7 491.3 733.3 483.7 800 492.8C866.7 502 933.3 528 1000 521.2C1066.7 514.3 1133.3 474.7 1166.7 454.8L1200 435L1200 631L1166.7 631C1133.3 631 1066.7 631 1000 631C933.3 631 866.7 631 800 631C733.3 631 666.7 631 600 631C533.3 631 466.7 631 400 631C333.3 631 266.7 631 200 631C133.3 631 66.7 631 33.3 631L0 631Z" fill="#f79b93"></path><path d="M0 491L33.3 488.7C66.7 486.3 133.3 481.7 200 497.3C266.7 513 333.3 549 400 565.7C466.7 582.3 533.3 579.7 600 564.2C666.7 548.7 733.3 520.3 800 520.8C866.7 521.3 933.3 550.7 1000 562.2C1066.7 573.7 1133.3 567.3 1166.7 564.2L1200 561L1200 631L1166.7 631C1133.3 631 1066.7 631 1000 631C933.3 631 866.7 631 800 631C733.3 631 666.7 631 600 631C533.3 631 466.7 631 400 631C333.3 631 266.7 631 200 631C133.3 631 66.7 631 33.3 631L0 631Z" fill="#f88a7f"></path><path d="M0 525L33.3 528.2C66.7 531.3 133.3 537.7 200 532.5C266.7 527.3 333.3 510.7 400 504.3C466.7 498 533.3 502 600 517.7C666.7 533.3 733.3 560.7 800 573.2C866.7 585.7 933.3 583.3 1000 582.8C1066.7 582.3 1133.3 583.7 1166.7 584.3L1200 585L1200 631L1166.7 631C1133.3 631 1066.7 631 1000 631C933.3 631 866.7 631 800 631C733.3 631 666.7 631 600 631C533.3 631 466.7 631 400 631C333.3 631 266.7 631 200 631C133.3 631 66.7 631 33.3 631L0 631Z" fill="#f8786b"></path><path d="M0 576L33.3 571.8C66.7 567.7 133.3 559.3 200 549.5C266.7 539.7 333.3 528.3 400 523.7C466.7 519 533.3 521 600 527.3C666.7 533.7 733.3 544.3 800 554.2C866.7 564 933.3 573 1000 568.7C1066.7 564.3 1133.3 546.7 1166.7 537.8L1200 529L1200 631L1166.7 631C1133.3 631 1066.7 631 1000 631C933.3 631 866.7 631 800 631C733.3 631 666.7 631 600 631C533.3 631 466.7 631 400 631C333.3 631 266.7 631 200 631C133.3 631 66.7 631 33.3 631L0 631Z" fill="#f66657"></path><path d="M0 595L33.3 592C66.7 589 133.3 583 200 583C266.7 583 333.3 589 400 593.2C466.7 597.3 533.3 599.7 600 600.5C666.7 601.3 733.3 600.7 800 596C866.7 591.3 933.3 582.7 1000 576.3C1066.7 570 1133.3 566 1166.7 564L1200 562L1200 631L1166.7 631C1133.3 631 1066.7 631 1000 631C933.3 631 866.7 631 800 631C733.3 631 666.7 631 600 631C533.3 631 466.7 631 400 631C333.3 631 266.7 631 200 631C133.3 631 66.7 631 33.3 631L0 631Z" fill="#f35242"></path><path d="M0 611L33.3 605.8C66.7 600.7 133.3 590.3 200 588C266.7 585.7 333.3 591.3 400 591C466.7 590.7 533.3 584.3 600 585.2C666.7 586 733.3 594 800 600.5C866.7 607 933.3 612 1000 608.7C1066.7 605.3 1133.3 593.7 1166.7 587.8L1200 582L1200 631L1166.7 631C1133.3 631 1066.7 631 1000 631C933.3 631 866.7 631 800 631C733.3 631 666.7 631 600 631C533.3 631 466.7 631 400 631C333.3 631 266.7 631 200 631C133.3 631 66.7 631 33.3 631L0 631Z" fill="#ef3b2d"></path></svg>