<svg id="visual" viewBox="0 0 1200 630" width="1200" height="630" xmlns="http://www.w3.org/2000/svg" xmlns:xlink="http://www.w3.org/1999/xlink" version="1.1"><path d="M1055 630L1079 630L1079 573L1055 573L1055 515L1067 515L1067 458L1055 458L1055 401L1067 401L1067 344L1079 344L1079 286L1043 286L1043 229L1091 229L1091 172L1115 172L1115 115L1091 115L1091 57L1115 57L1115 0L1200 0L1200 57L1200 57L1200 115L1200 115L1200 172L1200 172L1200 229L1200 229L1200 286L1200 286L1200 344L1200 344L1200 401L1200 401L1200 458L1200 458L1200 515L1200 515L1200 573L1200 573L1200 630L1200 630Z" fill="#9398e1"></path><path d="M971 630L1007 630L1007 573L1007 573L1007 515L983 515L983 458L1007 458L1007 401L1007 401L1007 344L1007 344L1007 286L995 286L995 229L1007 229L1007 172L1067 172L1067 115L1031 115L1031 57L1043 57L1043 0L1116 0L1116 57L1092 57L1092 115L1116 115L1116 172L1092 172L1092 229L1044 229L1044 286L1080 286L1080 344L1068 344L1068 401L1056 401L1056 458L1068 458L1068 515L1056 515L1056 573L1080 573L1080 630L1056 630Z" fill="#9a9ee4"></path><path d="M815 630L779 630L779 573L839 573L839 515L707 515L707 458L839 458L839 401L851 401L851 344L839 344L839 286L803 286L803 229L719 229L719 172L791 172L791 115L827 115L827 57L755 57L755 0L1044 0L1044 57L1032 57L1032 115L1068 115L1068 172L1008 172L1008 229L996 229L996 286L1008 286L1008 344L1008 344L1008 401L1008 401L1008 458L984 458L984 515L1008 515L1008 573L1008 573L1008 630L972 630Z" fill="#a0a5e8"></path><path d="M647 630L659 630L659 573L695 573L695 515L515 515L515 458L683 458L683 401L695 401L695 344L659 344L659 286L635 286L635 229L527 229L527 172L671 172L671 115L623 115L623 57L623 57L623 0L756 0L756 57L828 57L828 115L792 115L792 172L720 172L720 229L804 229L804 286L840 286L840 344L852 344L852 401L840 401L840 458L708 458L708 515L840 515L840 573L780 573L780 630L816 630Z" fill="#a7abeb"></path><path d="M599 630L623 630L623 573L623 573L623 515L479 515L479 458L635 458L635 401L635 401L635 344L599 344L599 286L563 286L563 229L467 229L467 172L635 172L635 115L551 115L551 57L551 57L551 0L624 0L624 57L624 57L624 115L672 115L672 172L528 172L528 229L636 229L636 286L660 286L660 344L696 344L696 401L684 401L684 458L516 458L516 515L696 515L696 573L660 573L660 630L648 630Z" fill="#aeb2ee"></path><path d="M515 630L515 630L515 573L515 573L515 515L407 515L407 458L575 458L575 401L539 401L539 344L503 344L503 286L491 286L491 229L407 229L407 172L539 172L539 115L491 115L491 57L467 57L467 0L552 0L552 57L552 57L552 115L636 115L636 172L468 172L468 229L564 229L564 286L600 286L600 344L636 344L636 401L636 401L636 458L480 458L480 515L624 515L624 573L624 573L624 630L600 630Z" fill="#b4b8f2"></path><path d="M443 630L455 630L455 573L455 573L455 515L359 515L359 458L479 458L479 401L455 401L455 344L419 344L419 286L419 286L419 229L359 229L359 172L467 172L467 115L431 115L431 57L407 57L407 0L468 0L468 57L492 57L492 115L540 115L540 172L408 172L408 229L492 229L492 286L504 286L504 344L540 344L540 401L576 401L576 458L408 458L408 515L516 515L516 573L516 573L516 630L516 630Z" fill="#bbbff5"></path><path d="M143 630L155 630L155 573L155 573L155 515L191 515L191 458L191 458L191 401L167 401L167 344L167 344L167 286L143 286L143 229L179 229L179 172L167 172L167 115L167 115L167 57L191 57L191 0L408 0L408 57L432 57L432 115L468 115L468 172L360 172L360 229L420 229L420 286L420 286L420 344L456 344L456 401L480 401L480 458L360 458L360 515L456 515L456 573L456 573L456 630L444 630Z" fill="#c2c6f8"></path><path d="M95 630L107 630L107 573L107 573L107 515L131 515L131 458L131 458L131 401L119 401L119 344L119 344L119 286L71 286L71 229L107 229L107 172L95 172L95 115L95 115L95 57L119 57L119 0L192 0L192 57L168 57L168 115L168 115L168 172L180 172L180 229L144 229L144 286L168 286L168 344L168 344L168 401L192 401L192 458L192 458L192 515L156 515L156 573L156 573L156 630L144 630Z" fill="#c8ccfc"></path><path d="M0 630L0 630L0 573L0 573L0 515L0 515L0 458L0 458L0 401L0 401L0 344L0 344L0 286L0 286L0 229L0 229L0 172L0 172L0 115L0 115L0 57L0 57L0 0L120 0L120 57L96 57L96 115L96 115L96 172L108 172L108 229L72 229L72 286L120 286L120 344L120 344L120 401L132 401L132 458L132 458L132 515L108 515L108 573L108 573L108 630L96 630Z" fill="#cfd3ff"></path></svg>